<svg width="59" height="59" viewBox="0 0 59 59" fill="none" xmlns="http://www.w3.org/2000/svg">
<path fill-rule="evenodd" clip-rule="evenodd" d="M25.2344 26.2C24.2118 25.5735 23.1357 25.0435 22.0216 24.6143C21.0538 26.0263 20.4913 27.7353 20.4913 29.5751C20.4913 30.4953 20.632 31.3828 20.8969 32.2189C21.373 31.1474 21.9588 30.1049 22.6618 29.11C23.4269 28.0269 24.2916 27.0559 25.2344 26.2ZM22.5166 23.9595C23.7228 24.3778 24.8866 24.9115 25.9956 25.5483C26.2495 25.3424 26.5048 25.1474 26.7643 24.9619C25.5803 24.3139 24.331 23.7852 23.0363 23.3877C22.8463 23.5635 22.6739 23.7548 22.5166 23.9595ZM23.6014 22.8557C24.9914 23.2247 26.3253 23.744 27.5838 24.4045C27.8692 24.2205 28.1627 24.0445 28.4543 23.8768C27.1132 23.2034 25.7046 22.6956 24.2529 22.3514C24.0219 22.5025 23.8022 22.6732 23.6014 22.8557ZM24.9215 21.9311C26.4452 22.2326 27.9299 22.7311 29.3356 23.4184L29.3373 23.4176C30.7411 22.7306 32.2233 22.2339 33.7445 21.9337C32.4527 21.1695 30.9411 20.7376 29.3287 20.7376C27.7205 20.7376 26.2121 21.1674 24.9215 21.9311ZM34.4119 22.3538C32.9588 22.696 31.5484 23.2047 30.2113 23.8792C30.5027 24.0443 30.7908 24.2169 31.0818 24.3981C32.3479 23.741 33.6778 23.2237 35.0588 22.8546C34.8554 22.6736 34.6387 22.5051 34.4119 22.3538ZM35.628 23.3907C34.3325 23.789 33.0901 24.3137 31.9058 24.9587C32.1626 25.1485 32.4217 25.3467 32.6761 25.5526C33.7783 24.9137 34.9396 24.3821 36.1465 23.9612C35.9874 23.7591 35.8159 23.5687 35.628 23.3907ZM36.6415 24.6167C35.5278 25.0448 34.455 25.5731 33.4357 26.2013C34.3773 27.0597 35.24 28.0292 36.0036 29.11C36.7064 30.1049 37.2924 31.1474 37.7674 32.2096C38.0276 31.3695 38.1664 30.4884 38.1664 29.5751C38.1664 27.7372 37.6049 26.0302 36.6415 24.6167ZM35.8837 30.7025C34.954 29.1959 33.8435 27.8683 32.5988 26.7307C32.3139 26.9263 32.0332 27.1295 31.756 27.341C33.8522 29.2895 35.542 31.7355 36.6189 34.5834C36.8648 34.2154 37.0886 33.8329 37.2806 33.4365C36.8954 32.5051 36.4314 31.5898 35.8837 30.7025ZM30.9731 26.6622C31.2503 26.4593 31.5357 26.263 31.8281 26.0726C31.575 25.8619 31.3144 25.6607 31.0469 25.4657C30.7504 25.6456 30.4609 25.8348 30.1728 26.0287L30.182 26.0354C30.4519 26.237 30.7168 26.4455 30.9731 26.6622ZM29.3341 25.4345C29.6296 25.2393 29.927 25.0531 30.2173 24.8799L30.1292 24.8264C29.8599 24.6629 29.5959 24.5026 29.3317 24.3496C29.0425 24.5181 28.7533 24.6948 28.4606 24.8823C28.7502 25.0607 29.0429 25.244 29.3341 25.4345ZM28.4903 26.0298C28.2056 25.8354 27.9183 25.6473 27.6273 25.4625C27.3594 25.6542 27.0951 25.8582 26.8347 26.07C27.1235 26.2583 27.4091 26.4544 27.6908 26.6584C27.9538 26.4414 28.2204 26.2314 28.4903 26.0298ZM29.3343 26.6465C29.064 26.8566 28.7957 27.0752 28.5322 27.3029C28.8045 27.5263 29.0724 27.7559 29.3335 27.9924C29.5947 27.7546 29.8629 27.5248 30.1368 27.3044C29.8743 27.0793 29.6055 26.8598 29.3343 26.6465ZM29.3326 29.5527C28.1481 30.8269 27.1153 32.2811 26.2773 33.9016C25.7115 34.9955 25.2589 36.1183 24.9161 37.2452C26.2153 37.9837 27.722 38.4127 29.3287 38.4127C30.9376 38.4127 32.4462 37.9826 33.748 37.2437C33.4065 36.1183 32.9539 34.9955 32.3881 33.9016C31.5501 32.2811 30.5173 30.8269 29.3326 29.5527ZM24.2094 35.4212C25.2193 32.8443 26.7114 30.599 28.5417 28.7487C28.2807 28.4993 28.0134 28.2571 27.7405 28.0228C25.6089 30.0713 23.9118 32.6327 22.8613 35.6002C23.1572 35.9151 23.4773 36.2117 23.8205 36.4896C23.9408 36.1361 24.0697 35.778 24.2094 35.4212ZM30.1205 28.7491C31.9508 30.5992 33.443 32.8447 34.4528 35.4216C34.5927 35.7782 34.7214 36.1365 34.8417 36.49C35.1849 36.2121 35.5049 35.9155 35.8008 35.6004C34.7506 32.6332 33.0533 30.0716 30.9217 28.0232C30.6488 28.2576 30.3813 28.4997 30.1205 28.7491ZM22.0433 34.5892C23.12 31.7416 24.81 29.2953 26.9061 27.347C26.629 27.1353 26.3481 26.9321 26.0636 26.7367C24.8186 27.8741 23.7082 29.2017 22.7785 30.7086C22.2308 31.5957 21.7668 32.5109 21.3818 33.4426C21.5735 33.839 21.7973 34.2214 22.0433 34.5892ZM29.3724 20.0257C34.826 20.0257 39.2739 24.4736 39.2739 29.9272C39.2739 30.5792 39.2103 31.2169 39.089 31.8343L43.1091 30.8226C42.882 30.6779 42.6035 30.5228 42.2157 30.3543C41.8118 30.1929 41.3243 30.0234 40.5952 29.9272C40.737 29.8135 40.92 29.7524 41.1337 29.7242C41.8499 29.5837 42.3121 29.6325 43.0122 29.7991L43.0321 29.8039C43.2626 29.8588 43.4705 29.9084 43.7123 29.9067C44.4393 29.9013 45.308 29.5718 45.8433 28.8614C45.093 29.1849 44.3605 29.1739 43.8724 29.0265C43.7969 29.0039 43.7276 28.9755 43.657 28.9404C43.616 28.9202 43.575 28.8996 43.5334 28.8787C43.1926 28.7077 42.8152 28.5184 42.1245 28.34C41.7003 28.2438 41.1922 28.1523 40.4573 28.1715C40.5795 28.0372 40.7504 27.9481 40.9572 27.8868C41.6424 27.6361 42.1068 27.612 42.8241 27.6671L42.847 27.6688C43.0823 27.6869 43.2949 27.7032 43.5324 27.6638C44.2499 27.5446 45.0562 27.0832 45.4738 26.2979C44.7834 26.7348 44.0583 26.8385 43.553 26.7694C43.4749 26.7587 43.402 26.7414 43.3266 26.718C43.2831 26.7044 43.2395 26.6906 43.1953 26.6765L43.1952 26.6765C42.8318 26.5609 42.4294 26.4329 41.719 26.3646C41.2852 26.336 40.7691 26.3252 40.046 26.4591C40.1459 26.3072 40.3008 26.1925 40.4954 26.0997C41.133 25.7446 41.5878 25.6484 42.3048 25.5905L42.3301 25.5885C42.5645 25.5696 42.7761 25.5525 43.004 25.4765C43.694 25.2466 44.4184 24.6647 44.7078 23.8239C44.0943 24.3634 43.3944 24.5793 42.8844 24.5898C42.8056 24.5915 42.7307 24.5859 42.6528 24.5747C42.6087 24.5683 42.5645 24.5615 42.5197 24.5547C42.1419 24.497 41.7241 24.4332 41.0099 24.477C40.5767 24.5166 40.0652 24.5868 39.3722 24.8321C39.4469 24.6664 39.582 24.5289 39.7596 24.4069C40.334 23.9565 40.7683 23.7901 41.4672 23.6207L41.4884 23.6156C41.7184 23.56 41.9257 23.5099 42.14 23.3989C42.7854 23.064 43.4097 22.376 43.5642 21.5001C43.0426 22.1287 42.3851 22.4515 41.8832 22.5419C41.8056 22.5559 41.7309 22.5621 41.6521 22.563C41.607 22.5635 41.5618 22.5638 41.516 22.5641C41.1341 22.5664 40.7116 22.5689 40.014 22.7238C39.5924 22.8305 39.0982 22.9796 38.452 23.3304C38.5 23.1552 38.6119 22.9984 38.7681 22.8499C39.265 22.3151 39.6679 22.0831 40.332 21.8063L40.3542 21.7971C40.5715 21.7066 40.7679 21.6248 40.9615 21.482C41.5467 21.0503 42.0558 20.273 42.0713 19.3835C41.6543 20.0864 41.0553 20.508 40.5739 20.6756C40.4992 20.7017 40.4265 20.7195 40.3488 20.7327C40.3038 20.7404 40.2585 20.7478 40.2126 20.7554C39.8364 20.8173 39.4198 20.8859 38.7563 21.1476C38.3564 21.3191 37.8916 21.5438 37.3082 21.9914C37.3282 21.8108 37.4143 21.6382 37.5453 21.4672C37.9523 20.8614 38.314 20.5691 38.9265 20.1918L38.9469 20.1793C39.1475 20.0559 39.3288 19.9444 39.4977 19.773C40.0081 19.255 40.3893 18.4076 40.2655 17.5269C39.9638 18.2862 39.4381 18.7962 38.9887 19.0373C38.9192 19.0745 38.8501 19.1035 38.7754 19.1287C38.7324 19.1433 38.6891 19.1576 38.6452 19.1722C38.2831 19.2923 37.8821 19.4253 37.2673 19.7877C36.8993 20.0197 36.4753 20.3143 35.9691 20.8476C35.9605 20.6662 36.0186 20.4822 36.1213 20.2928C36.4284 19.6308 36.74 19.2856 37.286 18.8171L37.3022 18.8033C37.4819 18.6494 37.6442 18.5104 37.7846 18.314C38.2075 17.7226 38.4516 16.826 38.1916 15.9755C38.0123 16.7729 37.5729 17.3586 37.1668 17.667C37.1039 17.7148 37.04 17.7542 36.9703 17.7908C36.9298 17.812 36.8891 17.8331 36.8478 17.8545L36.8477 17.8545C36.509 18.0297 36.134 18.2237 35.5839 18.6776C35.2566 18.9643 34.8841 19.3215 34.4676 19.9276C34.4306 19.7496 34.4593 19.5589 34.5311 19.3555C34.7308 18.6535 34.9846 18.2638 35.4505 17.7159L35.4647 17.6993C35.6181 17.5192 35.7564 17.3568 35.8643 17.1411C36.1897 16.4907 36.2902 15.5671 35.9005 14.7676C35.8482 15.583 35.5058 16.2305 35.1529 16.5987C35.0984 16.6556 35.0414 16.7044 34.9783 16.7518C34.9418 16.779 34.9049 16.8061 34.8676 16.8336C34.5604 17.0595 34.2201 17.3098 33.7473 17.8444C33.4691 18.1786 33.157 18.5898 32.8405 19.2535C32.7763 19.0835 32.7746 18.8907 32.8138 18.6787C32.9014 17.9541 33.091 17.5297 33.4654 16.9153L33.4759 16.8982C33.5996 16.6959 33.7111 16.5135 33.7841 16.2828C34.0039 15.5896 33.9587 14.6615 33.4486 13.933C33.5244 14.7467 33.2877 15.4396 32.9967 15.8584C32.9517 15.9232 32.9031 15.9805 32.8482 16.0368C32.8165 16.0693 32.7844 16.1018 32.752 16.1346L32.752 16.1346C32.4838 16.4061 32.187 16.7066 31.8036 17.3089C31.5809 17.6825 31.337 18.1375 31.1281 18.8425C31.0381 18.6847 31.0063 18.4945 31.0119 18.2789C30.985 17.5495 31.1057 17.1006 31.3796 16.4352L31.3884 16.4139C31.4784 16.1959 31.5596 15.9988 31.5953 15.7607C31.704 15.0417 31.5142 14.1321 30.8965 13.4922C31.0986 14.284 30.9731 15.0056 30.7512 15.4646C30.7168 15.5358 30.6781 15.6 30.6324 15.6641C30.6059 15.7017 30.579 15.7392 30.5517 15.7772C30.3296 16.087 30.0836 16.4301 29.7996 17.0838C29.6382 17.4876 29.4686 17.9752 29.3724 18.7043C29.2588 18.5625 29.1977 18.3796 29.1695 18.1659C29.0287 17.4497 29.0778 16.9872 29.2444 16.2873L29.2501 16.2631C29.3045 16.0344 29.3536 15.8276 29.352 15.5873C29.3466 14.8601 29.0171 13.9915 28.3067 13.4563C28.6302 14.2065 28.6192 14.9389 28.4718 15.4269C28.449 15.5027 28.4205 15.5722 28.3857 15.6426C28.3654 15.6836 28.3448 15.7246 28.324 15.7662C28.153 16.107 27.9636 16.4844 27.7853 17.1751C27.6888 17.5992 27.5976 18.1073 27.6168 18.8425C27.4822 18.72 27.3934 18.549 27.332 18.3424C27.0811 17.6571 27.0572 17.1927 27.1121 16.4754L27.1135 16.4569C27.1319 16.2199 27.1485 16.0063 27.1091 15.7672C26.9899 15.0499 26.5285 14.2433 25.7432 13.8258C26.18 14.5162 26.2838 15.2412 26.2147 15.7465C26.2039 15.8247 26.1867 15.8978 26.1632 15.9729C26.1496 16.0167 26.1357 16.0605 26.1215 16.105L26.1215 16.1052C26.0059 16.4683 25.8779 16.8706 25.8099 17.5803C25.7813 18.0144 25.7705 18.5304 25.9044 19.2535C25.7524 19.1537 25.6377 18.9987 25.545 18.8042C25.1899 18.1665 25.0937 17.7116 25.0358 16.9945L25.0339 16.9714C25.0149 16.7362 24.9978 16.5239 24.9217 16.2955C24.6919 15.6056 24.11 14.8814 23.2691 14.5917C23.8085 15.2053 24.0245 15.9051 24.0351 16.415C24.0368 16.4939 24.0312 16.5688 24.0198 16.6467C24.0133 16.6912 24.0065 16.7358 23.9996 16.781L23.9996 16.7812V16.7812C23.9421 17.1586 23.8785 17.5763 23.9223 18.2896C23.9617 18.7228 24.0318 19.2342 24.2772 19.9276C24.1117 19.8527 23.9742 19.7175 23.8519 19.54C23.4017 18.9656 23.2354 18.5313 23.066 17.8321L23.0597 17.8062L23.0597 17.8062C23.0044 17.5783 22.9544 17.3723 22.8441 17.1596C22.5093 16.5142 21.821 15.8896 20.9453 15.7351C21.574 16.257 21.8968 16.9145 21.9872 17.4163C22.0011 17.494 22.0074 17.5687 22.0082 17.6474C22.0088 17.6928 22.0091 17.7384 22.0093 17.7846V17.7846C22.0116 18.1662 22.0141 18.5885 22.1688 19.2856C22.2758 19.7072 22.4249 20.2015 22.7757 20.8476C22.6005 20.7996 22.4434 20.6877 22.2951 20.5314C21.7603 20.0345 21.5283 19.6319 21.2516 18.9675L21.2432 18.9474L21.2432 18.9473C21.1523 18.7292 21.0703 18.5322 20.9273 18.3381C20.4953 17.7529 19.7182 17.2439 18.8288 17.2282C19.5317 17.6451 19.953 18.2442 20.1209 18.7256C20.1467 18.8003 20.1648 18.8731 20.1779 18.9505C20.1855 18.9948 20.1928 19.0393 20.2002 19.0843L20.2002 19.0844C20.2621 19.4614 20.3306 19.8784 20.5928 20.5435C20.7644 20.9431 20.989 21.4078 21.4364 21.9914C21.2561 21.9714 21.0833 21.8853 20.9124 21.7542C20.3066 21.3471 20.0141 20.9855 19.6371 20.3728L19.624 20.3515C19.5008 20.1515 19.3894 19.9705 19.2181 19.8019C18.7003 19.2914 17.8528 18.9103 16.9722 19.034C17.7314 19.3358 18.2415 19.8615 18.4825 20.3108C18.5197 20.3804 18.5488 20.4497 18.574 20.5241C18.5885 20.5672 18.6029 20.6105 18.6175 20.6543C18.7376 21.0165 18.8705 21.4175 19.2329 22.0323C19.4649 22.4003 19.7596 22.8243 20.2928 23.3304C20.1114 23.339 19.9274 23.2811 19.738 23.1783C19.0758 22.8712 18.7307 22.5595 18.2624 22.0136L18.2463 21.9948C18.0931 21.8161 17.9547 21.6547 17.7592 21.5149C17.1678 21.0918 16.2713 20.848 15.4208 21.108C16.2179 21.2872 16.8039 21.7267 17.1123 22.1328C17.1599 22.1956 17.1995 22.2593 17.236 22.3291C17.2569 22.3688 17.2776 22.4089 17.2985 22.4495C17.4739 22.7888 17.6679 23.1644 18.1229 23.7159C18.4093 24.043 18.7666 24.4155 19.3726 24.8321C19.1949 24.8687 19.004 24.8403 18.8008 24.7684C18.0988 24.5687 17.7091 24.315 17.1611 23.8489L17.1433 23.8337C16.9637 23.6809 16.8015 23.5429 16.5861 23.4352C15.936 23.1098 15.0121 23.0091 14.2128 23.3991C15.0282 23.4516 15.6758 23.7938 16.0438 24.1467C16.1008 24.2011 16.1497 24.2582 16.1968 24.3212C16.2238 24.3574 16.2506 24.3939 16.2778 24.4309C16.504 24.7384 16.7544 25.0786 17.2896 25.552C17.6238 25.8303 18.0351 26.1423 18.6988 26.4591C18.5288 26.5232 18.336 26.5249 18.124 26.4858C17.3994 26.3982 16.9748 26.2086 16.3606 25.8339L16.3418 25.8225C16.1402 25.6994 15.9581 25.5883 15.7281 25.5154C15.0349 25.2957 14.1067 25.3407 13.3782 25.8509C14.1919 25.7752 14.8849 26.0119 15.3037 26.3031C15.3685 26.3478 15.4257 26.3965 15.4821 26.4516C15.5148 26.4835 15.5475 26.5157 15.5806 26.5484L15.5806 26.5484C15.8518 26.8162 16.1523 27.1129 16.754 27.496C17.1276 27.7187 17.5825 27.9625 18.2875 28.1715C18.1298 28.2615 17.9396 28.2933 17.7241 28.2879C16.9948 28.3146 16.5459 28.1937 15.8805 27.9199L15.8611 27.9119C15.6423 27.8217 15.4447 27.7402 15.206 27.7041C14.487 27.5956 13.5773 27.7852 12.9375 28.4033C13.7292 28.201 14.4508 28.3264 14.9099 28.5483C14.9809 28.5828 15.0452 28.6215 15.1094 28.6671C15.1465 28.6934 15.1837 28.7201 15.2214 28.7471C15.5312 28.9694 15.8746 29.2156 16.5291 29.5C16.9328 29.6614 17.4205 29.8312 18.1494 29.9272C18.0078 30.0408 17.8248 30.1019 17.6111 30.1303C16.8949 30.2708 16.4325 30.2218 15.7326 30.0552L15.7127 30.0505C15.4822 29.9955 15.2744 29.9459 15.0325 29.9476C14.5844 29.9509 14.0826 30.0773 13.6382 30.3401L19.6579 31.845C19.5353 31.2243 19.471 30.583 19.471 29.9272C19.471 24.4736 23.9189 20.0257 29.3724 20.0257ZM27.4541 39.6415L28.4645 43.6833C28.6127 43.4527 28.7719 43.1695 28.9452 42.7705C29.1066 42.3666 29.2762 41.8792 29.3724 41.1501C29.4858 41.2919 29.5472 41.4748 29.5753 41.6885C29.7159 42.4046 29.6668 42.867 29.5005 43.567L29.4953 43.5888C29.4405 43.8185 29.391 44.026 29.3929 44.267C29.3962 44.7155 29.5228 45.2178 29.786 45.6625L31.2912 39.6414C30.6702 39.7642 30.0286 39.8286 29.3724 39.8286C28.7164 39.8286 28.075 39.7642 27.4541 39.6415Z" fill="white"/>
<path d="M26.0728 26.0709L29.55 12.1621L33.0272 26.0709L46.9359 29.548L33.0272 33.0252L29.55 46.934L26.0728 33.0252L12.1641 29.548L26.0728 26.0709Z" fill="white"/>
<path d="M29.5508 29.5481L33.028 33.0253L29.5508 46.934V29.5481Z" fill="#1D3523"/>
<path d="M29.5508 29.5481L26.0736 26.0709L29.5508 12.1622L29.5508 29.5481Z" fill="#1D3523"/>
<path d="M29.5508 29.5481L26.0736 33.0253L12.1649 29.5481L29.5508 29.5481Z" fill="#1D3523"/>
<path d="M29.5508 29.5481L33.028 26.0709L46.9367 29.5481L29.5508 29.5481Z" fill="#1D3523"/>
<path opacity="0.9" fill-rule="evenodd" clip-rule="evenodd" d="M29.5 59C45.7924 59 59 45.7924 59 29.5C59 13.2076 45.7924 0 29.5 0C13.2076 0 0 13.2076 0 29.5C0 45.7924 13.2076 59 29.5 59ZM29.5937 47.5746C39.6278 47.5746 47.7619 39.4405 47.7619 29.4063C47.7619 19.3722 39.6278 11.2381 29.5937 11.2381C19.5595 11.2381 11.4254 19.3722 11.4254 29.4063C11.4254 39.4405 19.5595 47.5746 29.5937 47.5746ZM8.00718 14.794L11.536 17.6579L12.1733 16.8725L10.6969 15.6743L10.8201 15.5225C11.1686 15.0931 11.6039 15.1773 12.0996 15.3798C12.1766 15.4099 12.2536 15.4413 12.3306 15.4727L12.3307 15.4727H12.3307C12.5831 15.5757 12.836 15.6789 13.0954 15.7364L13.7922 14.8778C13.3847 14.7797 12.985 14.6271 12.5846 14.4742C12.5067 14.4444 12.4288 14.4147 12.3509 14.3853C11.8078 14.1878 11.3279 14.137 10.8483 14.5033L10.2762 11.9982L9.4901 12.9668L10.1752 15.1294L10.1157 15.2027L8.64455 14.0087L8.00718 14.794ZM16.6865 12.2893L14.4618 8.34959L15.3484 7.84895L16.1275 9.22872C16.235 9.14481 16.4012 9.02773 16.548 8.94483C17.3641 8.48399 18.3444 8.46474 18.8483 9.35719C19.0572 9.7271 19.0931 10.0785 19.012 10.3876C18.8493 10.9906 18.2521 11.4827 17.6767 11.8076C17.2422 12.053 16.9027 12.2059 16.6865 12.2893ZM16.8067 9.70473C16.6893 9.77104 16.5902 9.84247 16.5088 9.90395L17.215 11.1546C17.2954 11.1324 17.4103 11.0753 17.5277 11.009C17.9211 10.7868 18.1675 10.3456 17.9222 9.91116C17.6669 9.45905 17.1473 9.51243 16.8067 9.70473ZM19.9551 10.4668L17.7204 6.50948L18.6129 6.00553L20.8476 9.96287L19.9551 10.4668ZM25.0216 8.69405L26.0295 8.54869L25.7965 6.93364C25.8928 6.94018 26.0139 6.92952 26.1473 6.91029C26.748 6.82364 27.2398 6.59601 27.5406 6.22561C27.7785 5.93922 27.8639 5.53858 27.8002 5.09812C27.7367 4.65765 27.4961 4.31088 27.1696 4.12633C26.8347 3.92938 26.3702 3.87375 25.7429 3.96426C25.1222 4.05379 24.6875 4.15736 24.3816 4.256L25.0216 8.69405ZM25.4923 4.82472C25.5627 4.79412 25.701 4.76055 25.9012 4.73167C26.4151 4.65755 26.7377 4.86308 26.7974 5.27685C26.8628 5.73068 26.5687 6.05243 26.028 6.1304C25.8746 6.15256 25.7734 6.16031 25.6839 6.1528L25.4923 4.82472ZM32.253 8.36708L33.0342 3.89005L35.7377 4.36179L35.5927 5.19209L33.899 4.89653L33.2627 8.54326L32.253 8.36708ZM41.0322 6.12678L38.7413 10.0285C38.922 10.1736 39.2247 10.3904 39.6551 10.6431C40.2249 10.9777 40.9501 11.2471 41.5534 11.0853C41.8615 11.0002 42.1474 10.7928 42.3626 10.4265C42.8814 9.54266 42.3727 8.70445 41.5645 8.22992C41.4191 8.14457 41.2344 8.05959 41.1078 8.00875L41.9102 6.6423L41.0322 6.12678ZM40.7152 8.67744C40.8093 8.71704 40.9209 8.76686 41.037 8.83513C41.3744 9.03314 41.6813 9.45579 41.4186 9.90351C41.1659 10.3338 40.6606 10.3421 40.271 10.1133C40.1547 10.0451 40.0477 9.97439 39.9881 9.91599L40.7152 8.67744ZM44.2594 8.02155L41.9584 11.9407L42.8421 12.4596L45.1431 8.54047L44.2594 8.02155ZM49.6666 13.9082C49.448 13.6341 49.0934 13.4167 48.8335 13.2963L49.2609 12.6535C49.5965 12.7824 50.0333 13.0379 50.4285 13.5334C51.0466 14.3082 51.0223 15.078 50.5004 15.4943C50.0524 15.8517 49.5229 15.7825 49.0947 15.4512L49.0843 15.4596C49.3742 15.9529 49.3753 16.5815 48.9009 16.96C48.105 17.5949 47.1959 17.0176 46.6662 16.3534C46.3718 15.9844 46.1313 15.5207 46.0646 15.091L46.8211 14.7635C46.8629 14.9889 47.0254 15.463 47.2903 15.7951C47.6141 16.201 47.9857 16.31 48.2809 16.0745C48.6709 15.7634 48.422 15.2891 48.153 14.9518L47.8838 14.6144L48.4795 14.1393L48.7486 14.4766C49.0387 14.8403 49.4208 14.9841 49.7053 14.757C49.9374 14.572 49.9398 14.2509 49.6666 13.9082ZM13.8188 43.6145L10.562 46.755C10.6968 46.9434 10.9253 47.229 11.2763 47.593C11.7584 48.0929 12.3516 48.5139 12.9325 48.5626C13.2898 48.5834 13.6544 48.466 13.9699 48.1618C14.3339 47.8108 14.446 47.4122 14.3911 47.0249C14.3368 46.5995 14.087 46.1753 13.7688 45.8452C13.6471 45.719 13.4829 45.5682 13.3607 45.4706L13.9237 44.9277L15.3092 46.3644L15.911 45.784L13.8188 43.6145ZM12.8171 45.9949H12.8171H12.8172C12.9111 46.073 13.005 46.1509 13.0846 46.2333C13.253 46.4081 13.3872 46.6347 13.4117 46.864C13.4321 47.0503 13.3763 47.2354 13.2113 47.3944C13.0511 47.5489 12.8592 47.6123 12.6734 47.604C12.4496 47.5857 12.2182 47.4622 12.045 47.2828C11.9467 47.1807 11.8579 47.079 11.7929 46.9825L12.8171 45.9949ZM18.4508 52.8987L18.713 51.7091L17.5766 51.0751L16.7256 51.9361L15.8011 51.4203L19.2226 48.1251L20.4001 48.7821L19.4224 53.4407L18.4508 52.8987ZM18.786 49.7655L18.0807 50.4761L18.9579 50.9655L19.1804 49.9856C19.2314 49.7554 19.3054 49.4838 19.3705 49.2438H19.3707L19.3711 49.2423L19.3848 49.1921C19.3925 49.1637 19.4 49.1358 19.4074 49.1084L19.3956 49.1019C19.3194 49.183 19.2374 49.2746 19.154 49.3676L19.1538 49.3678V49.368L19.1536 49.3682L19.1535 49.3684C19.0289 49.5074 18.9014 49.6497 18.786 49.7655ZM23.0731 50.0121L24.2031 52.2984C23.5856 52.2955 23.2188 52.6642 22.9152 53.2028C22.8467 53.3246 22.7789 53.451 22.7105 53.5789C22.5491 53.8799 22.3831 54.1895 22.1891 54.4701L23.2018 54.6662C23.3543 54.4564 23.4833 54.1967 23.6054 53.9509L23.615 53.9316C23.6472 53.8666 23.679 53.8029 23.7107 53.7415C23.9486 53.2931 24.2387 52.9303 24.7815 53.0354L24.9403 53.0663L24.5788 54.9329L25.5519 55.1215L25.9136 53.2547L26.0658 53.2841C26.6152 53.3907 26.7487 53.8355 26.7956 54.339C26.8012 54.4002 26.8066 54.4632 26.8118 54.5271L26.812 54.5278C26.8364 54.8147 26.8624 55.1229 26.9289 55.3883L27.9482 55.5857C27.875 55.2794 27.8437 54.9616 27.8122 54.6421V54.6419C27.7948 54.4652 27.7774 54.2882 27.7529 54.1124C27.6791 53.5005 27.4738 53.0005 26.8776 52.8164L28.786 51.1187L27.6143 50.8917L26.1432 52.5299L26.057 52.5132L26.4161 50.6596L25.443 50.4712L25.084 52.3248L24.998 52.3081L24.2449 50.2392L23.0731 50.0121ZM31.0409 55.4132L30.3341 50.9443L31.3397 50.7853L31.5873 52.3504C31.7173 52.3094 31.9139 52.2577 32.0805 52.2315C33.0063 52.085 33.9314 52.4096 34.0915 53.422C34.1578 53.8415 34.0687 54.1833 33.8847 54.4446C33.5214 54.9526 32.7898 55.2049 32.137 55.3081C31.6442 55.386 31.2726 55.4107 31.0409 55.4132ZM32.0572 53.0339C31.9241 53.0549 31.8062 53.0871 31.7085 53.1163L31.9329 54.5349C32.0158 54.5422 32.1436 54.5289 32.2767 54.5078C32.7229 54.4371 33.1082 54.1099 33.0301 53.6171C32.949 53.1043 32.4434 52.9726 32.0572 53.0339ZM34.7405 54.8485L34.0305 50.3596L35.0426 50.1995L35.7527 54.6883L34.7405 54.8485ZM41.8274 51.0129C41.6802 51.1852 41.4064 51.3911 41.1234 51.5338C40.3105 51.9434 39.5708 51.6744 39.1612 50.8616C38.7061 49.9582 39.0505 49.2335 39.7731 48.8692C40.1043 48.7023 40.3995 48.6441 40.6197 48.6314L40.4482 47.8117C40.2401 47.8033 39.8332 47.8951 39.3575 48.1348C38.1292 48.7539 37.5272 50.0163 38.2251 51.4012C38.8078 52.5574 39.9733 53.0723 41.3764 52.3652C41.8642 52.1195 42.2009 51.8288 42.324 51.6686L41.8274 51.0129ZM45.0498 49.8355L41.8782 46.6089L42.6044 45.8951L43.7151 47.0252C43.7971 46.9162 43.9273 46.76 44.0473 46.6418C44.7158 45.9848 45.6576 45.7117 46.3759 46.4426C46.6737 46.7454 46.7995 47.0756 46.8016 47.395C46.801 48.0196 46.3521 48.6499 45.8808 49.1133C45.5252 49.463 45.2369 49.699 45.0498 49.8355ZM44.4946 47.3084C44.3985 47.403 44.3214 47.4976 44.2586 47.5782L45.2655 48.6025C45.3373 48.5602 45.4334 48.4752 45.5296 48.3806C45.8518 48.064 45.9752 47.5739 45.6255 47.218C45.2614 46.8479 44.7735 47.0342 44.4946 47.3084ZM47.7329 47.2266L44.5471 43.9855L45.2781 43.267L48.4639 46.5083L47.7329 47.2266Z" fill="white"/>
</svg>
