<svg width="14" height="14" viewBox="0 0 14 14" fill="none" xmlns="http://www.w3.org/2000/svg">
<path d="M0.400938 10H8.59906C8.65173 10 8.70388 9.9897 8.75254 9.96956C8.80121 9.94943 8.84542 9.9199 8.88266 9.88266C8.9199 9.84542 8.94943 9.80121 8.96956 9.75254C8.9897 9.70388 9.00004 9.65173 9 9.59906V8.40094C9.00004 8.34827 8.9897 8.29612 8.96956 8.24746C8.94943 8.19879 8.9199 8.15458 8.88266 8.11734C8.84542 8.0801 8.80121 8.05057 8.75254 8.03044C8.70388 8.0103 8.65173 7.99996 8.59906 8H0.400938C0.348274 7.99996 0.296119 8.0103 0.247457 8.03044C0.198794 8.05057 0.154579 8.0801 0.11734 8.11734C0.0801017 8.15458 0.0505704 8.19879 0.030436 8.24746C0.0103015 8.29612 -4.09732e-05 8.34827 1.21986e-07 8.40094V9.59906C-4.09732e-05 9.65173 0.0103015 9.70388 0.030436 9.75254C0.0505704 9.80121 0.0801017 9.84542 0.11734 9.88266C0.154579 9.9199 0.198794 9.94943 0.247457 9.96956C0.296119 9.9897 0.348274 10 0.400938 10ZM0.400938 2H8.59906C8.65173 2.00004 8.70388 1.9897 8.75254 1.96956C8.80121 1.94943 8.84542 1.9199 8.88266 1.88266C8.9199 1.84542 8.94943 1.80121 8.96956 1.75254C8.9897 1.70388 9.00004 1.65173 9 1.59906V0.400938C9.00004 0.348274 8.9897 0.296119 8.96956 0.247457C8.94943 0.198794 8.9199 0.154579 8.88266 0.11734C8.84542 0.0801017 8.80121 0.0505704 8.75254 0.0304359C8.70388 0.0103015 8.65173 -4.09732e-05 8.59906 1.21987e-07H0.400938C0.348274 -4.09732e-05 0.296119 0.0103015 0.247457 0.0304359C0.198794 0.0505704 0.154579 0.0801017 0.11734 0.11734C0.0801017 0.154579 0.0505704 0.198794 0.030436 0.247457C0.0103015 0.296119 -4.09732e-05 0.348274 1.21986e-07 0.400938V1.59906C-4.09732e-05 1.65173 0.0103015 1.70388 0.030436 1.75254C0.0505704 1.80121 0.0801017 1.84542 0.11734 1.88266C0.154579 1.9199 0.198794 1.94943 0.247457 1.96956C0.296119 1.9897 0.348274 2.00004 0.400938 2ZM13.5 4H0.5C0.367392 4 0.240215 4.05268 0.146447 4.14645C0.0526785 4.24021 1.21986e-07 4.36739 1.21986e-07 4.5V5.5C1.21986e-07 5.63261 0.0526785 5.75979 0.146447 5.85355C0.240215 5.94732 0.367392 6 0.5 6H13.5C13.6326 6 13.7598 5.94732 13.8536 5.85355C13.9473 5.75979 14 5.63261 14 5.5V4.5C14 4.36739 13.9473 4.24021 13.8536 4.14645C13.7598 4.05268 13.6326 4 13.5 4ZM13.5 12H0.5C0.367392 12 0.240215 12.0527 0.146447 12.1464C0.0526785 12.2402 1.21986e-07 12.3674 1.21986e-07 12.5V13.5C1.21986e-07 13.6326 0.0526785 13.7598 0.146447 13.8536C0.240215 13.9473 0.367392 14 0.5 14H13.5C13.6326 14 13.7598 13.9473 13.8536 13.8536C13.9473 13.7598 14 13.6326 14 13.5V12.5C14 12.3674 13.9473 12.2402 13.8536 12.1464C13.7598 12.0527 13.6326 12 13.5 12Z" fill="white"/>
</svg>
