<svg width="23" height="22" viewBox="0 0 23 22" fill="none" xmlns="http://www.w3.org/2000/svg">
<path d="M11.5437 5.33081C8.43823 5.33081 5.93335 7.83569 5.93335 10.9412C5.93335 14.0466 8.43823 16.5515 11.5437 16.5515C14.6492 16.5515 17.1541 14.0466 17.1541 10.9412C17.1541 7.83569 14.6492 5.33081 11.5437 5.33081ZM11.5437 14.5886C9.53687 14.5886 7.89624 12.9529 7.89624 10.9412C7.89624 8.92944 9.53198 7.2937 11.5437 7.2937C13.5554 7.2937 15.1912 8.92944 15.1912 10.9412C15.1912 12.9529 13.5505 14.5886 11.5437 14.5886ZM18.6921 5.10132C18.6921 5.82886 18.1062 6.40991 17.3835 6.40991C16.656 6.40991 16.075 5.82397 16.075 5.10132C16.075 4.37866 16.6609 3.79272 17.3835 3.79272C18.1062 3.79272 18.6921 4.37866 18.6921 5.10132ZM22.408 6.42944C22.325 4.67651 21.9246 3.12378 20.6404 1.84448C19.3611 0.565185 17.8083 0.164795 16.0554 0.0769043C14.2488 -0.0256348 8.83374 -0.0256348 7.0271 0.0769043C5.27905 0.159912 3.72632 0.560303 2.44214 1.8396C1.15796 3.1189 0.762451 4.67163 0.674561 6.42456C0.572021 8.2312 0.572021 13.6462 0.674561 15.4529C0.757568 17.2058 1.15796 18.7585 2.44214 20.0378C3.72632 21.3171 5.27417 21.7175 7.0271 21.8054C8.83374 21.908 14.2488 21.908 16.0554 21.8054C17.8083 21.7224 19.3611 21.322 20.6404 20.0378C21.9197 18.7585 22.3201 17.2058 22.408 15.4529C22.5105 13.6462 22.5105 8.23608 22.408 6.42944ZM20.074 17.3914C19.6931 18.3484 18.9558 19.0857 17.9939 19.4714C16.5535 20.0427 13.1355 19.9109 11.5437 19.9109C9.9519 19.9109 6.52905 20.0378 5.09351 19.4714C4.13647 19.0906 3.39917 18.3533 3.01343 17.3914C2.44214 15.9509 2.57397 12.533 2.57397 10.9412C2.57397 9.34937 2.44702 5.92651 3.01343 4.49097C3.39429 3.53394 4.13159 2.79663 5.09351 2.41089C6.53394 1.8396 9.9519 1.97144 11.5437 1.97144C13.1355 1.97144 16.5584 1.84448 17.9939 2.41089C18.9509 2.79175 19.6882 3.52905 20.074 4.49097C20.6453 5.9314 20.5134 9.34937 20.5134 10.9412C20.5134 12.533 20.6453 15.9558 20.074 17.3914Z" fill="#9D9D9D"/>
</svg>
