<svg width="26" height="21" viewBox="0 0 26 21" fill="none" xmlns="http://www.w3.org/2000/svg">
<path d="M22.9165 5.06025C22.9324 5.28232 22.9324 5.50444 22.9324 5.72651C22.9324 12.5 17.777 20.3045 8.35435 20.3045C5.45142 20.3045 2.75474 19.4638 0.486328 18.0044C0.898779 18.052 1.29531 18.0679 1.72363 18.0679C4.1189 18.0679 6.32388 17.2589 8.08467 15.8788C5.83213 15.8312 3.94443 14.356 3.29404 12.3255C3.61133 12.373 3.92856 12.4048 4.26172 12.4048C4.72173 12.4048 5.18179 12.3413 5.61006 12.2303C3.26235 11.7544 1.50151 9.69224 1.50151 7.20176V7.13833C2.18359 7.51904 2.97681 7.75698 3.81748 7.78867C2.4374 6.8686 1.53325 5.29819 1.53325 3.52153C1.53325 2.56978 1.78701 1.69731 2.2312 0.935889C4.75342 4.04502 8.54468 6.07544 12.7959 6.29756C12.7166 5.91685 12.669 5.52031 12.669 5.12373C12.669 2.3001 14.9533 0 17.7927 0C19.268 0 20.6004 0.618652 21.5364 1.61802C22.6943 1.39595 23.8047 0.967627 24.7883 0.380713C24.4075 1.57046 23.5985 2.56982 22.5357 3.2043C23.5668 3.09331 24.5662 2.80771 25.4862 2.41118C24.7884 3.42637 23.9159 4.33052 22.9165 5.06025Z" fill="#9D9D9D"/>
</svg>
