<svg width="24" height="14" viewBox="0 0 24 14" fill="none" xmlns="http://www.w3.org/2000/svg">
<path d="M23.066 0.94184C23.2266 0.399305 23.066 0 22.2934 0H19.737C19.0859 0 18.7865 0.342882 18.6259 0.724826C18.6259 0.724826 17.3238 3.89757 15.4835 5.95486C14.8889 6.54948 14.6154 6.74045 14.2899 6.74045C14.1293 6.74045 13.8819 6.54948 13.8819 6.00694V0.94184C13.8819 0.290798 13.6997 0 13.1615 0H9.14236C8.73437 0 8.49132 0.303819 8.49132 0.585938C8.49132 1.20226 9.41146 1.34549 9.50694 3.0816V6.84896C9.50694 7.67361 9.35937 7.82552 9.03385 7.82552C8.1658 7.82552 6.05642 4.63976 4.80642 0.993924C4.55469 0.286458 4.30729 0 3.65191 0H1.09549C0.366319 0 0.21875 0.342882 0.21875 0.724826C0.21875 1.40191 1.08681 4.76563 4.25955 9.21007C6.37326 12.2439 9.35069 13.8889 12.059 13.8889C13.6866 13.8889 13.8863 13.5243 13.8863 12.895C13.8863 9.99566 13.7387 9.72222 14.5547 9.72222C14.9323 9.72222 15.5833 9.91319 17.1024 11.3759C18.8385 13.112 19.125 13.8889 20.0972 13.8889H22.6536C23.3828 13.8889 23.7517 13.5243 23.5391 12.8038C23.053 11.2891 19.7674 8.17274 19.6198 7.96441C19.2422 7.4783 19.3507 7.26128 19.6198 6.82726C19.6241 6.82292 22.7448 2.43056 23.066 0.94184Z" fill="#9D9D9D"/>
</svg>
