<svg width="80" height="48" viewBox="0 0 80 48" fill="none" xmlns="http://www.w3.org/2000/svg">
<path fill-rule="evenodd" clip-rule="evenodd" d="M0 0H80V48H0V0Z" fill="#E30614"/>
<path fill-rule="evenodd" clip-rule="evenodd" d="M36.3826 20.7413C35.4889 20.1938 34.5482 19.7309 33.5736 19.3546C32.7269 20.5889 32.2358 22.0828 32.2358 23.6914C32.2358 24.4967 32.3581 25.2718 32.5914 26.0037C33.0072 25.0668 33.519 24.1561 34.1342 23.285C34.8022 22.3386 35.5585 21.4901 36.3826 20.7413ZM34.0063 18.7827C35.0599 19.1477 36.0778 19.6143 37.0486 20.1712C37.2706 19.9906 37.4945 19.8212 37.7203 19.6594C36.6855 19.0931 35.5924 18.6303 34.4616 18.2841C34.2942 18.4365 34.1436 18.6039 34.0063 18.7827ZM34.9546 17.8175C36.17 18.1392 37.3365 18.5945 38.4353 19.1721C38.6855 19.0103 38.9414 18.8579 39.1954 18.7112C38.0232 18.1223 36.7909 17.6782 35.5228 17.3772C35.3233 17.5089 35.1314 17.6575 34.9546 17.8175ZM36.1098 17.0084C37.4419 17.2718 38.7401 17.7083 39.9687 18.3085H39.9705C41.1973 17.7083 42.4936 17.2737 43.8238 17.0103C42.6949 16.3424 41.3722 15.9642 39.963 15.9642C38.5557 15.9661 37.2368 16.3424 36.1098 17.0084ZM44.407 17.3791C43.1371 17.6782 41.9028 18.1223 40.7344 18.713C40.9884 18.8579 41.2405 19.0084 41.4964 19.1665C42.6027 18.5926 43.7655 18.1392 44.9734 17.8175C44.7946 17.6575 44.6046 17.5108 44.407 17.3791ZM45.4701 18.286C44.3374 18.634 43.2518 19.0931 42.2151 19.6575C42.439 19.8231 42.6667 19.9962 42.8887 20.1768C43.852 19.618 44.868 19.1533 45.9235 18.7845C45.7843 18.6077 45.6338 18.4402 45.4701 18.286ZM46.3562 19.3565C45.3835 19.7309 44.4447 20.1919 43.5529 20.7413C44.3769 21.492 45.1295 22.3386 45.7974 23.285C46.4127 24.1543 46.9244 25.0668 47.3403 25.9943C47.5679 25.2606 47.6883 24.4892 47.6883 23.6914C47.6883 22.0846 47.1973 20.5926 46.3562 19.3565ZM45.694 24.6773C44.8812 23.3603 43.9103 22.1994 42.821 21.2041C42.5726 21.3753 42.3261 21.5522 42.0834 21.7384C43.916 23.4412 45.3929 25.5804 46.3355 28.0696C46.55 27.7479 46.7457 27.413 46.9132 27.0668C46.5783 26.254 46.1719 25.4525 45.694 24.6773ZM41.4005 21.1458C41.6432 20.9689 41.8915 20.7977 42.1474 20.6303C41.9254 20.4459 41.6977 20.2709 41.4644 20.0997C41.2048 20.2577 40.9527 20.4233 40.7006 20.5926L40.7081 20.5983C40.9433 20.7733 41.1766 20.9558 41.4005 21.1458ZM39.9668 20.0715C40.2245 19.9003 40.4861 19.7384 40.7382 19.586C40.4767 19.4261 40.2208 19.27 39.9649 19.1213C39.7128 19.2681 39.4588 19.4224 39.2029 19.5879C39.4569 19.746 39.7128 19.9059 39.9668 20.0715ZM39.2292 20.5926C38.9809 20.4233 38.7288 20.2577 38.4748 20.0978C38.2396 20.2653 38.0101 20.444 37.7824 20.6284C38.0345 20.7939 38.2847 20.9652 38.5312 21.142C38.7608 20.952 38.9941 20.7695 39.2292 20.5926ZM39.9668 21.1307C39.7297 21.3151 39.4964 21.5051 39.265 21.7046C39.5039 21.9003 39.7372 22.1016 39.9649 22.3066C40.1926 22.0978 40.4277 21.8984 40.6667 21.7046C40.439 21.5108 40.2038 21.3189 39.9668 21.1307ZM39.9649 23.6726C38.9301 24.7864 38.027 26.0583 37.2932 27.475C36.7984 28.4308 36.4033 29.413 36.1022 30.3988C37.2387 31.0442 38.5557 31.4205 39.9593 31.4205C41.3666 31.4205 42.6855 31.0442 43.8219 30.3988C43.5228 29.4148 43.1276 28.4327 42.6328 27.4769C41.9047 26.0583 41.0016 24.7864 39.9649 23.6726ZM35.487 28.8034C36.3694 26.5512 37.6752 24.587 39.2744 22.9689C39.0467 22.7507 38.8116 22.54 38.5745 22.3349C36.7118 24.126 35.2274 26.365 34.3092 28.9595C34.5689 29.2342 34.8473 29.4939 35.1483 29.7366C35.2518 29.428 35.3647 29.1157 35.487 28.8034ZM40.6535 22.9708C42.2546 24.5889 43.5585 26.5512 44.4409 28.8052C44.5632 29.1176 44.6761 29.4299 44.7815 29.7384C45.0806 29.4957 45.3609 29.2361 45.6206 28.9614C44.7024 26.3669 43.218 24.1279 41.3553 22.3368C41.1164 22.54 40.8831 22.7526 40.6535 22.9708ZM33.5924 28.0752C34.5331 25.586 36.0119 23.4468 37.8445 21.7441C37.6018 21.5597 37.3572 21.381 37.1069 21.2098C36.0176 22.2051 35.0486 23.364 34.2339 24.6829C33.7561 25.4581 33.3497 26.2596 33.0129 27.0724C33.1822 27.4205 33.3779 27.7535 33.5924 28.0752ZM40.0006 15.3433C44.7683 15.3433 48.6573 19.2323 48.6573 24C48.6573 28.7676 44.7683 32.6566 40.0006 32.6566C35.233 32.6566 31.344 28.7676 31.344 24C31.344 19.2323 35.233 15.3433 40.0006 15.3433ZM43.8257 13.4355C43.583 13.7272 43.3101 14.0865 43.0336 14.6679C42.9771 14.5193 42.9752 14.3499 43.011 14.1655C43.0881 13.5315 43.2537 13.1608 43.5811 12.6246C43.6921 12.4421 43.7937 12.2784 43.8595 12.0715C44.0514 11.4656 44.0119 10.6547 43.566 10.0169C43.6319 10.7281 43.4249 11.3339 43.1709 11.7008C43.1314 11.7573 43.09 11.8081 43.0411 11.857C42.7833 12.1204 42.503 12.3781 42.1286 12.9689C41.9348 13.2963 41.7203 13.6933 41.5378 14.3104C41.4588 14.1731 41.4306 14.0056 41.4362 13.8175C41.4136 13.1796 41.519 12.7864 41.7579 12.205C41.8388 12.0075 41.9141 11.8306 41.9461 11.6161C42.0402 10.9877 41.8746 10.1919 41.3346 9.63308C41.5115 10.3255 41.4023 10.9558 41.2085 11.3584C41.1784 11.4205 41.1446 11.4769 41.1051 11.5334C40.8925 11.8325 40.6554 12.1336 40.3769 12.7751C40.2358 13.1288 40.0872 13.5541 40.0025 14.1919C39.9028 14.0677 39.8501 13.9078 39.8257 13.7215C39.7034 13.095 39.7448 12.6905 39.8915 12.079C39.9404 11.8701 39.9875 11.6839 39.9856 11.4675C39.9818 10.8316 39.6921 10.0715 39.0712 9.60486C39.3534 10.2615 39.344 10.9012 39.2161 11.3283C39.1954 11.3941 39.1709 11.4543 39.1408 11.5164C38.9771 11.8457 38.7909 12.1787 38.6159 12.856C38.5312 13.2267 38.4522 13.6707 38.4691 14.3142C38.3525 14.2069 38.2735 14.0583 38.2208 13.8777C38.0006 13.2794 37.9799 12.873 38.0289 12.2446C38.0458 12.0301 38.0609 11.84 38.0251 11.6256C37.9216 10.999 37.5171 10.2935 36.8304 9.92847C37.2123 10.5324 37.3026 11.1665 37.2424 11.6067C37.233 11.6745 37.218 11.7384 37.1973 11.8043C37.0881 12.1561 36.9545 12.5136 36.8887 13.2098C36.8642 13.5898 36.8548 14.0395 36.9715 14.6717C36.8379 14.5851 36.7382 14.4496 36.6573 14.2784C36.3468 13.7215 36.2622 13.3226 36.2114 12.6961C36.1944 12.4816 36.1813 12.2916 36.1117 12.0846C35.9103 11.4807 35.4023 10.8485 34.6667 10.5945C35.1389 11.1307 35.3271 11.7422 35.3365 12.1881C35.3384 12.2577 35.3327 12.3217 35.3233 12.3913C35.2706 12.7544 35.1954 13.1288 35.2387 13.8269C35.2725 14.205 35.3346 14.6528 35.5491 15.2587C35.4042 15.1928 35.2838 15.0743 35.1766 14.92C34.7833 14.4177 34.6366 14.0376 34.4898 13.4261C34.439 13.2173 34.3958 13.031 34.296 12.8372C34.0025 12.2728 33.4023 11.7272 32.6366 11.5917C33.186 12.047 33.4682 12.6227 33.5472 13.0611C33.5604 13.1288 33.5641 13.1947 33.566 13.2624C33.5698 13.6293 33.5547 14.0113 33.7071 14.6942C33.8012 15.063 33.931 15.4957 34.2377 16.0602C34.0853 16.0188 33.948 15.9209 33.8181 15.7836C33.3515 15.349 33.1483 14.9971 32.9056 14.4158C32.8228 14.2182 32.7514 14.0395 32.6215 13.8645C32.2434 13.3527 31.5641 12.9087 30.7871 12.8937C31.4023 13.2587 31.7692 13.7817 31.916 14.2032C31.9386 14.269 31.9536 14.333 31.9668 14.4007C32.0289 14.7638 32.0721 15.142 32.3299 15.793C32.4804 16.143 32.6761 16.5494 33.0674 17.0592C32.9094 17.0423 32.7589 16.967 32.6084 16.8523C32.0778 16.4967 31.8238 16.1806 31.4927 15.6444C31.3798 15.4619 31.2819 15.2982 31.1258 15.1458C30.6723 14.6999 29.9329 14.3669 29.1615 14.4741C29.8257 14.7375 30.2716 15.1985 30.4823 15.5898C30.5143 15.65 30.5406 15.7102 30.5632 15.7761C30.6817 16.1241 30.7833 16.491 31.1389 17.095C31.3421 17.4167 31.5999 17.7874 32.0646 18.2295C31.9066 18.237 31.7448 18.1862 31.5792 18.0959C30.9997 17.8269 30.6987 17.5559 30.2885 17.078C30.1493 16.9162 30.0251 16.7695 29.8482 16.6415C29.3308 16.2709 28.5482 16.0583 27.8031 16.286C28.4992 16.4421 29.0129 16.8278 29.2819 17.1815C29.3233 17.2361 29.3591 17.2925 29.3911 17.3527C29.5623 17.6782 29.7203 18.0244 30.1662 18.5644C30.4165 18.8504 30.7288 19.1759 31.2593 19.5409C31.1032 19.5729 30.9376 19.5484 30.7589 19.4844C30.1455 19.3095 29.805 19.0875 29.3252 18.6811C29.1615 18.5418 29.0166 18.4158 28.8228 18.3198C28.2546 18.0357 27.4475 17.9473 26.7476 18.2878C27.4607 18.333 28.027 18.6321 28.3487 18.9407C28.3976 18.9877 28.4409 19.0385 28.4823 19.0931C28.7024 19.3885 28.9132 19.7065 29.4381 20.1693C29.7297 20.412 30.0891 20.6848 30.6704 20.9614C30.5218 21.0178 30.3525 21.0197 30.1681 20.984C29.534 20.9068 29.1634 20.7413 28.6272 20.4139C28.4447 20.3029 28.281 20.2013 28.074 20.1354C27.4682 19.9435 26.6573 19.983 26.0195 20.4289C26.7307 20.3631 27.3365 20.5701 27.7034 20.8241C27.7598 20.8636 27.8106 20.905 27.8595 20.9539C28.1229 21.2098 28.3807 21.492 28.9715 21.8664C29.2989 22.0602 29.6958 22.2747 30.313 22.4572C30.1756 22.5362 30.0082 22.5644 29.82 22.5588C29.1822 22.5813 28.789 22.476 28.2076 22.237C28.0101 22.1561 27.8332 22.0809 27.6187 22.0489C26.9903 21.9548 26.1944 22.1204 25.6356 22.6604C26.328 22.4835 26.9583 22.5926 27.3609 22.7864C27.423 22.8165 27.4795 22.8504 27.5359 22.8899C27.8351 23.1025 28.1361 23.3396 28.7777 23.618C29.1314 23.7591 29.5566 23.9078 30.1944 23.9924C30.0703 24.0922 29.9103 24.1448 29.7241 24.1693C29.0975 24.2916 28.693 24.2502 28.0816 24.1035C27.8727 24.0545 27.6864 24.0075 27.4701 24.0094C26.8341 24.015 26.074 24.3029 25.6074 24.9238C26.2641 24.6416 26.9038 24.651 27.3308 24.7789C27.3967 24.7996 27.4569 24.8241 27.519 24.8542C27.8482 25.0178 28.1813 25.2041 28.8586 25.3791C29.2292 25.4638 29.6733 25.5428 30.3167 25.5258C30.2095 25.6425 30.0609 25.7215 29.8802 25.7742C29.2819 25.9943 28.8755 26.015 28.2471 25.9661C28.0326 25.9492 27.8426 25.9341 27.6281 25.9699C27.0016 26.0733 26.296 26.4779 25.931 27.1646C26.535 26.7827 27.169 26.6924 27.6112 26.7526C27.6789 26.762 27.7429 26.777 27.8087 26.7977C28.1606 26.9068 28.5181 27.0404 29.2142 27.1063C29.5943 27.1307 30.0439 27.1401 30.6761 27.0235C30.5895 27.1571 30.4541 27.2568 30.2829 27.3377C29.726 27.6481 29.3271 27.7328 28.7006 27.7836C28.4861 27.8005 28.296 27.8137 28.0891 27.8833C27.4851 28.0846 26.853 28.5926 26.599 29.3283C27.1352 28.856 27.7466 28.6679 28.1926 28.6585C28.2622 28.6566 28.3261 28.6622 28.3958 28.6717C28.7589 28.7243 29.1333 28.7996 29.8313 28.7563C30.2095 28.7225 30.6573 28.6604 31.2631 28.4459C31.1973 28.5908 31.0787 28.7112 30.9244 28.8184C30.4221 29.2116 30.042 29.3565 29.4306 29.5051C29.2217 29.5559 29.0355 29.5992 28.8417 29.6989C28.2772 29.9924 27.7316 30.5926 27.5961 31.3584C28.0514 30.809 28.6272 30.5268 29.0656 30.4478C29.1333 30.4365 29.1991 30.4308 29.2669 30.4289C29.6338 30.4252 30.0157 30.4402 30.6987 30.2878C31.0674 30.1938 31.5002 30.0639 32.0646 29.7573C32.0232 29.9097 31.9254 30.047 31.788 30.1768C31.3534 30.6434 31.0016 30.8466 30.4202 31.0893C30.2227 31.1721 30.0439 31.2436 29.8689 31.3734C29.3572 31.7516 28.9132 32.4308 28.8981 33.2079C29.2631 32.5926 29.7862 32.2257 30.2076 32.079C30.2735 32.0564 30.3374 32.0414 30.4052 32.0282C30.7683 31.9661 31.1465 31.9228 31.7974 31.6651C32.1474 31.5146 32.5538 31.3189 33.0637 30.9275C33.0467 31.0856 32.9715 31.2361 32.8567 31.3866C32.5011 31.9172 32.185 32.1712 31.6488 32.5023C31.4663 32.6152 31.3026 32.713 31.1502 32.8692C30.7043 33.3226 30.3713 34.0621 30.4785 34.8335C30.7419 34.1693 31.2029 33.7234 31.5942 33.5127C31.6545 33.4807 31.7147 33.4543 31.7805 33.4318C32.1286 33.3132 32.4955 33.2116 33.0994 32.856C33.4212 32.6528 33.7918 32.3951 34.2339 31.9304C34.2415 32.0884 34.1907 32.2502 34.1004 32.4158C33.8313 32.9953 33.5604 33.2963 33.0825 33.7065C32.9207 33.8457 32.7739 33.9699 32.646 34.1467C32.2753 34.6641 32.0627 35.4468 32.2904 36.1919C32.4466 35.4957 32.8323 34.9821 33.186 34.713C33.2405 34.6717 33.297 34.6359 33.3572 34.6039C33.6827 34.4327 34.0289 34.2747 34.5688 33.8288C34.8548 33.5785 35.1803 33.2662 35.5453 32.7356C35.5773 32.8918 35.5529 33.0574 35.4889 33.2361C35.3139 33.8495 35.0919 34.19 34.6855 34.6698C34.5463 34.8335 34.4221 34.9783 34.3243 35.1721C34.0402 35.7403 33.9517 36.5475 34.2923 37.2474C34.3374 36.5343 34.6366 35.968 34.9451 35.6463C34.9922 35.5973 35.043 35.5541 35.0975 35.5127C35.3929 35.2925 35.7109 35.0818 36.1737 34.5569C36.4164 34.2653 36.6893 33.9059 36.9658 33.3245C37.0223 33.4732 37.0242 33.6425 36.9884 33.8269C36.9113 34.4609 36.7457 34.8316 36.4183 35.3678C36.3073 35.5503 36.2057 35.714 36.1399 35.9209C35.948 36.5268 35.9875 37.3377 36.4334 37.9755C36.3675 37.2643 36.5745 36.6585 36.8285 36.2916C36.868 36.2352 36.9094 36.1844 36.9583 36.1354C37.2142 35.872 37.4964 35.6143 37.8708 35.0235C38.0646 34.6961 38.2791 34.2991 38.4616 33.682C38.5406 33.8194 38.5689 33.9868 38.5632 34.1749C38.5858 34.8128 38.4804 35.206 38.2415 35.7874C38.1606 35.9849 38.0853 36.1618 38.0533 36.3763C37.9593 37.0047 38.1248 37.8005 38.6648 38.3593C38.4879 37.667 38.5971 37.0367 38.7909 36.634C38.821 36.5719 38.8548 36.5155 38.8943 36.4591C39.1069 36.1599 39.344 35.8589 39.6225 35.2173C39.7636 34.8636 39.9122 34.4384 39.9969 33.8005C40.0966 33.9247 40.1493 34.0846 40.1737 34.2709C40.296 34.8974 40.2546 35.3019 40.1079 35.9134C40.059 36.1223 40.0119 36.3085 40.0138 36.5249C40.0176 37.1608 40.3073 37.921 40.9282 38.3876C40.646 37.7309 40.6554 37.0912 40.7833 36.6641C40.804 36.5983 40.8285 36.5381 40.8586 36.476C41.0223 36.1467 41.2085 35.8137 41.3835 35.1364C41.4682 34.7657 41.5472 34.3217 41.5303 33.6782C41.6469 33.7855 41.726 33.9341 41.7786 34.1147C41.9988 34.713 42.0195 35.1194 41.9705 35.7479C41.9536 35.9623 41.9386 36.1524 41.9724 36.3669C42.0759 36.9934 42.4804 37.6989 43.1672 38.0639C42.7852 37.46 42.6949 36.8259 42.7551 36.3857C42.7645 36.3179 42.7796 36.254 42.8003 36.1881C42.9094 35.8363 43.043 35.4788 43.1088 34.7827C43.1333 34.4026 43.1427 33.9529 43.026 33.3208C43.1596 33.4073 43.2593 33.5428 43.3403 33.714C43.6507 34.2709 43.7354 34.6698 43.7862 35.2963C43.8031 35.5108 43.8163 35.7008 43.8859 35.9078C44.0872 36.5117 44.5952 37.1439 45.3308 37.3979C44.8586 36.8617 44.6704 36.2502 44.661 35.8043C44.6592 35.7347 44.6648 35.6707 44.6742 35.6011C44.7269 35.238 44.8022 34.8636 44.7589 34.1655C44.725 33.7874 44.6629 33.3396 44.4484 32.7337C44.5933 32.7996 44.7137 32.9181 44.821 33.0724C45.2142 33.5748 45.3591 33.9548 45.5077 34.5663C45.5585 34.7751 45.6018 34.9614 45.7015 35.1552C45.995 35.7196 46.5952 36.2653 47.3609 36.4007C46.8116 35.9454 46.5293 35.3697 46.4503 34.9313C46.439 34.8636 46.4334 34.7977 46.4315 34.73C46.4277 34.3631 46.4428 33.9812 46.2904 33.2982C46.1963 32.9294 46.0665 32.4967 45.7598 31.9322C45.9122 31.9736 46.0496 32.0715 46.1794 32.2088C46.646 32.6434 46.8492 32.9953 47.0919 33.5766C47.1747 33.7742 47.2462 33.9529 47.376 34.1279C47.7542 34.6397 48.4334 35.0837 49.2104 35.0987C48.5952 34.7337 48.2283 34.2107 48.0815 33.7892C48.059 33.7234 48.0439 33.6594 48.0307 33.5917C47.9687 33.2286 47.9254 32.8504 47.6676 32.1994C47.5171 31.8495 47.3214 31.4431 46.9301 30.9332C47.0881 30.9501 47.2387 31.0254 47.3892 31.1401C47.9197 31.4957 48.1737 31.8118 48.5049 32.348C48.6178 32.5305 48.7156 32.6942 48.8718 32.8466C49.3252 33.2925 50.0646 33.6256 50.836 33.5183C50.1719 33.2549 49.726 32.794 49.5152 32.4026C49.4832 32.3424 49.4569 32.2822 49.4343 32.2163C49.3158 31.8683 49.2142 31.5014 48.8586 30.8974C48.6554 30.5757 48.3976 30.2051 47.9329 29.7629C48.091 29.7554 48.2528 29.8062 48.4183 29.8965C48.9978 30.1655 49.2989 30.4365 49.709 30.9144C49.8482 31.0762 49.9724 31.2229 50.1493 31.3509C50.6667 31.7215 51.4494 31.9341 52.1944 31.7065C51.4983 31.5503 50.9847 31.1646 50.7156 30.8109C50.6742 30.7563 50.6385 30.6999 50.6065 30.6397C50.4353 30.3142 50.2772 29.968 49.8313 29.428C49.5811 29.142 49.2688 28.8165 48.7382 28.4515C48.8943 28.4195 49.0599 28.444 49.2387 28.508C49.852 28.6829 50.1926 28.905 50.6723 29.3114C50.836 29.4506 50.9809 29.5766 51.1747 29.6726C51.7429 29.9567 52.55 30.0451 53.2499 29.7046C52.5369 29.6594 51.9705 29.3603 51.6488 29.0517C51.5999 29.0047 51.5566 28.9539 51.5152 28.8993C51.2951 28.6039 51.0844 28.286 50.5594 27.8231C50.2678 27.5804 49.9085 27.3076 49.3271 27.031C49.4757 26.9746 49.645 26.9727 49.8294 27.0084C50.4635 27.0856 50.8341 27.2511 51.3704 27.5785C51.5529 27.6895 51.7165 27.7911 51.9235 27.857C52.5293 28.0489 53.3403 28.0094 53.9781 27.5635C53.2669 27.6293 52.661 27.4224 52.2942 27.1684C52.2377 27.1288 52.1869 27.0875 52.138 27.0385C51.8746 26.7827 51.6168 26.5004 51.026 26.126C50.6987 25.9322 50.3017 25.7178 49.6846 25.5352C49.8219 25.4562 49.9894 25.428 50.1775 25.4336C50.8153 25.4111 51.2085 25.5164 51.7899 25.7554C51.9875 25.8363 52.1643 25.9115 52.3788 25.9435C53.0072 26.0376 53.8031 25.872 54.3619 25.332C53.6695 25.5089 53.0392 25.3998 52.6366 25.206C52.5745 25.1759 52.518 25.142 52.4616 25.1025C52.1624 24.8899 51.8614 24.6528 51.2198 24.3744C50.8661 24.2333 50.4409 24.0846 49.8031 24C49.9273 23.9003 50.0872 23.8476 50.2735 23.8231C50.9 23.7008 51.3045 23.7422 51.916 23.889C52.1248 23.9379 52.3111 23.9849 52.5275 23.983C53.1634 23.9793 53.9235 23.6895 54.3901 23.0686C53.7335 23.3509 53.0938 23.3415 52.6667 23.2135C52.6008 23.1928 52.5406 23.1684 52.4785 23.1383C52.1493 22.9746 51.8163 22.7883 51.1389 22.6133C50.7683 22.5287 50.3243 22.4496 49.6808 22.4666C49.788 22.3499 49.9367 22.2709 50.1173 22.2182C50.7156 21.9981 51.122 21.9774 51.7504 22.0263C51.9649 22.0432 52.1549 22.0583 52.3694 22.0225C52.9959 21.9191 53.7015 21.5146 54.0665 20.8278C53.4625 21.2098 52.8285 21.3001 52.3882 21.2399C52.3205 21.2304 52.2565 21.2154 52.1907 21.1947C51.8388 21.0856 51.4814 20.952 50.7852 20.8861C50.4052 20.8617 49.9555 20.8523 49.3233 20.9689C49.4099 20.8353 49.5453 20.7356 49.7165 20.6547C50.2735 20.3443 50.6723 20.2596 51.2989 20.2088C51.5133 20.1919 51.7034 20.1787 51.9103 20.1091C52.5143 19.9078 53.1465 19.3998 53.4005 18.6641C52.8642 19.1364 52.2528 19.3245 51.8069 19.3339C51.7372 19.3358 51.6733 19.3302 51.6037 19.3208C51.2405 19.2681 50.8661 19.1928 50.1681 19.2361C49.7899 19.27 49.3421 19.332 48.7363 19.5465C48.8022 19.4017 48.9207 19.2812 49.075 19.174C49.5773 18.7808 49.9574 18.6359 50.5688 18.4873C50.7777 18.4365 50.964 18.3932 51.1577 18.2935C51.7222 18 52.2678 17.3998 52.4033 16.634C51.948 17.1834 51.3722 17.4656 50.9339 17.5447C50.8661 17.5578 50.8003 17.5616 50.7325 17.5635C50.3657 17.5672 49.9837 17.5522 49.3007 17.7046C48.932 17.7987 48.4992 17.9285 47.9348 18.2352C47.9762 18.0828 48.074 17.9454 48.2114 17.8156C48.646 17.349 48.9978 17.1458 49.5792 16.9031C49.7768 16.8203 49.9555 16.7488 50.1305 16.619C50.6422 16.2408 51.0863 15.5616 51.1013 14.7845C50.7363 15.3998 50.2133 15.7667 49.7918 15.9134C49.726 15.936 49.662 15.951 49.5942 15.9642C49.2311 16.0263 48.853 16.0696 48.202 16.3273C47.852 16.4779 47.4456 16.6735 46.9357 17.0649C46.9527 16.9068 47.0279 16.7563 47.1427 16.6058C47.4983 16.0752 47.8144 15.8212 48.3506 15.4901C48.5331 15.3772 48.6968 15.2794 48.8492 15.1232C49.2951 14.6698 49.6281 13.9304 49.5209 13.159C49.2575 13.8231 48.7965 14.269 48.4052 14.4797C48.345 14.5117 48.2847 14.5381 48.2189 14.5606C47.8708 14.6792 47.5039 14.7808 46.9 15.1364C46.5783 15.3396 46.2076 15.5973 45.7655 16.0621C45.7579 15.904 45.8087 15.7422 45.899 15.5766C46.1681 14.9971 46.439 14.6961 46.9169 14.286C47.0787 14.1467 47.2255 14.0225 47.3534 13.8457C47.7241 13.3283 47.9367 12.5456 47.709 11.8005C47.5529 12.4967 47.1672 13.0103 46.8134 13.2794C46.7589 13.3208 46.7024 13.3565 46.6422 13.3885C46.3167 13.5597 45.9705 13.7177 45.4306 14.1637C45.1446 14.4139 44.8191 14.7262 44.4541 15.2568C44.4221 15.1006 44.4466 14.9351 44.5105 14.7563C44.6855 14.143 44.9075 13.8024 45.3139 13.3226C45.4531 13.159 45.5792 13.0141 45.6752 12.8203C45.9593 12.2521 46.0477 11.4449 45.7071 10.745C45.662 11.4581 45.3628 12.0244 45.0543 12.3462C45.0072 12.3951 44.9564 12.4383 44.9019 12.4797C44.6065 12.6999 44.2885 12.9125 43.8257 13.4355Z" fill="#FFED00"/>
</svg>
