<svg width="38" height="21" viewBox="0 0 38 21" fill="none" xmlns="http://www.w3.org/2000/svg">
<path d="M0.00585938 0.00549316H37.9995V20.9999H0.00585938V0.00549316Z" fill="white"/>
<path d="M0.0126672 19.4724H37.9937V20.9999H0.0126672V19.4724ZM0.0126672 16.361H37.9937V17.8941H0.0126672V16.361ZM0.0126672 13.0961H37.9937V14.6292H0.0126672V13.0961ZM0.0063336 9.83034H37.9937V11.3635L0.0063336 11.3579V9.83034ZM0 6.56463H37.9937V8.09776H0V6.56463ZM0 3.30524H37.9937V4.83837H0V3.30524ZM0 0.00549316H37.9937V1.57266H0V0.00549316Z" fill="#E30613"/>
<path d="M0.00585938 0H13.4671V11.3635L0.00585938 11.358V0Z" fill="#312783"/>
<path d="M11.4443 10.5214L11.6153 9.95706L11.1934 9.59773H11.7119L11.8663 9.08484L12.0199 9.59773H12.5559L12.1339 9.95706L12.2883 10.504L11.8663 10.1676L11.4443 10.5214Z" fill="white"/>
<path d="M8.76628 10.5214L8.93174 9.95706L8.50977 9.59773H9.02833L9.18825 9.08484L9.3363 9.59773H9.87227L9.4503 9.95706L9.60943 10.504L9.18825 10.1676L8.76628 10.5214Z" fill="white"/>
<path d="M6.13346 10.5214L6.30447 9.95706L5.87695 9.59773H6.40185L6.55544 9.08484L6.70903 9.59773H7.24501L6.82303 9.95706L6.97742 10.504L6.55544 10.1676L6.13346 10.5214Z" fill="white"/>
<path d="M3.53417 10.5214L3.70518 9.95706L3.2832 9.59773H3.80177L3.95615 9.08484L4.10974 9.59773H4.64572L4.22374 9.95706L4.37812 10.504L3.95615 10.1676L3.53417 10.5214Z" fill="white"/>
<path d="M1.0153 10.5214L1.17997 9.95706L0.758789 9.59773H1.27735L1.43648 9.08484L1.58532 9.59773H2.12685L1.69933 9.95706L1.85846 10.504L1.43648 10.1676L1.0153 10.5214Z" fill="white"/>
<path d="M11.4821 7.92285L11.6476 7.35851L11.2256 7.01104H11.7441L11.9041 6.49182L12.0521 7.01104H12.5881L12.1661 7.35851L12.326 7.90543L11.9041 7.57459L11.4821 7.92285Z" fill="white"/>
<path d="M8.7985 7.92285L8.96397 7.35851L8.54199 7.01104H9.0661L9.22048 6.49182L9.37407 7.01104H9.91006L9.48254 7.35851L9.64167 7.90543L9.22048 7.57459L8.7985 7.92285Z" fill="white"/>
<path d="M6.1701 7.92285L6.34111 7.35851L5.91992 7.01104H6.43849L6.58653 6.49182L6.74012 7.01104H7.2761L6.85413 7.35851L7.01405 7.90543L6.58653 7.57459L6.1701 7.92285Z" fill="white"/>
<path d="M3.57096 7.92285L3.73643 7.35851L3.31445 7.01104H3.83302L3.99294 6.49182L4.14099 7.01104H4.67697L4.25499 7.35851L4.41492 7.90543L3.99294 7.57459L3.57096 7.92285Z" fill="white"/>
<path d="M0.967448 7.92285L1.13846 7.35851L0.710938 7.01104H1.23504L1.38863 6.49182L1.54301 7.01104H2.07899L1.65702 7.35851L1.81061 7.90543L1.38863 7.57459L0.967448 7.92285Z" fill="white"/>
<path d="M11.4443 5.15269L11.6153 4.58915L11.1934 4.23535H11.7119L11.8663 3.71692L12.0199 4.23535H12.5559L12.1339 4.58915L12.2883 5.13053L11.8663 4.79969L11.4443 5.15269Z" fill="white"/>
<path d="M8.76628 5.15269L8.93174 4.58915L8.50977 4.23535H9.02833L9.18825 3.71692L9.3363 4.23535H9.87227L9.4503 4.58915L9.60943 5.13053L9.18825 4.79969L8.76628 5.15269Z" fill="white"/>
<path d="M6.13346 5.15269L6.30447 4.58915L5.87695 4.23535H6.40185L6.55544 3.71692L6.70903 4.23535H7.24501L6.82303 4.58915L6.97742 5.13053L6.55544 4.79969L6.13346 5.15269Z" fill="white"/>
<path d="M3.61327 5.15269L3.78428 4.58915L3.3623 4.23535H3.88087L4.03525 3.71692L4.18884 4.23535H4.72482L4.30284 4.58915L4.45723 5.13053L4.03525 4.79969L3.61327 5.15269Z" fill="white"/>
<path d="M0.936198 5.15269L1.10087 4.58915L0.679688 4.23535H1.19825L1.35738 3.71692L1.50622 4.23535H2.04774L1.62023 4.58915L1.77936 5.13053L1.35738 4.79969L0.936198 5.15269Z" fill="white"/>
<path d="M11.4821 2.39506L11.6476 1.83073L11.2256 1.47693H11.7441L11.9041 0.958496L12.0521 1.47693H12.5881L12.1661 1.83073L12.326 2.37211L11.9041 2.04126L11.4821 2.39506Z" fill="white"/>
<path d="M8.7985 2.39506L8.96397 1.83073L8.54199 1.47693H9.0661L9.22048 0.958496L9.37407 1.47693H9.91006L9.48254 1.83073L9.64167 2.37211L9.22048 2.04126L8.7985 2.39506Z" fill="white"/>
<path d="M6.1701 2.39506L6.34111 1.83073L5.91992 1.47693H6.43849L6.58653 0.958496L6.74012 1.47693H7.2761L6.85413 1.83073L7.01405 2.37211L6.58653 2.04126L6.1701 2.39506Z" fill="white"/>
<path d="M3.57096 2.39506L3.73643 1.83073L3.31445 1.47693H3.83302L3.99294 0.958496L4.14099 1.47693H4.67697L4.25499 1.83073L4.41492 2.37211L3.99294 2.04126L3.57096 2.39506Z" fill="white"/>
<path d="M0.967448 2.39506L1.13846 1.83073L0.710938 1.47693H1.23504L1.38863 0.958496L1.54301 1.47693H2.07899L1.65702 1.83073L1.81061 2.37211L1.38863 2.04126L0.967448 2.39506Z" fill="white"/>
</svg>
