<svg width="28" height="28" viewBox="0 0 28 28" fill="none" xmlns="http://www.w3.org/2000/svg">
<path d="M23.6677 22.2066L27.7095 26.2463C27.898 26.4415 28.0023 26.7029 28 26.9742C27.9976 27.2455 27.8888 27.5051 27.6969 27.6969C27.5051 27.8888 27.2455 27.9976 26.9742 28C26.7029 28.0023 26.4415 27.898 26.2463 27.7095L22.2045 23.6677C19.5632 25.9306 16.1481 27.0826 12.6758 26.8819C9.20354 26.6812 5.94394 25.1434 3.58103 22.5911C1.21811 20.0389 -0.064444 16.6707 0.00249436 13.1933C0.0694327 9.7158 1.48066 6.39943 3.94005 3.94005C6.39943 1.48066 9.7158 0.0694327 13.1933 0.00249436C16.6707 -0.064444 20.0389 1.21811 22.5911 3.58103C25.1434 5.94394 26.6812 9.20354 26.8819 12.6758C27.0826 16.1481 25.9306 19.5632 23.6677 22.2045V22.2066ZM13.4523 24.8349C16.4712 24.8349 19.3664 23.6357 21.501 21.501C23.6357 19.3664 24.8349 16.4712 24.8349 13.4523C24.8349 10.4335 23.6357 7.53826 21.501 5.40361C19.3664 3.26896 16.4712 2.06973 13.4523 2.06973C10.4335 2.06973 7.53826 3.26896 5.40361 5.40361C3.26896 7.53826 2.06973 10.4335 2.06973 13.4523C2.06973 16.4712 3.26896 19.3664 5.40361 21.501C7.53826 23.6357 10.4335 24.8349 13.4523 24.8349Z" fill="#B6D5C6"/>
</svg>
